<?xml version="1.0" standalone="no"?>
<!DOCTYPE svg PUBLIC "-//W3C//DTD SVG 20010904//EN"
 "http://www.w3.org/TR/2001/REC-SVG-20010904/DTD/svg10.dtd">
<svg version="1.0" xmlns="http://www.w3.org/2000/svg"
 width="1280.000000pt" height="810.000000pt" viewBox="0 0 1280.000000 810.000000"
 preserveAspectRatio="xMidYMid meet">
<g transform="translate(0.000000,810.000000) scale(0.100000,-0.100000)"
fill="#000000" stroke="none">
<path d="M8343 8084 c-17 -7 -34 -18 -38 -23 -3 -6 -26 -19 -50 -30 -31 -14
-46 -27 -51 -46 -9 -38 1 -98 25 -148 12 -24 21 -47 21 -51 0 -4 -14 -25 -31
-46 -34 -42 -47 -102 -35 -163 8 -43 73 -119 133 -154 51 -30 50 -9 18 -220
-18 -123 -18 -123 3 -211 27 -108 27 -129 2 -234 -30 -125 -35 -229 -16 -313
9 -38 53 -182 98 -318 95 -290 95 -259 8 -492 -67 -180 -68 -184 -36 -222 14
-17 26 -34 26 -39 0 -4 -33 -76 -74 -158 -174 -355 -226 -522 -242 -774 -7
-114 -44 -220 -98 -283 -74 -87 -95 -145 -131 -357 -47 -277 -102 -420 -212
-549 -47 -55 -59 -76 -63 -113 l-5 -45 -131 -3 -131 -3 -11 28 c-6 15 -18 60
-27 98 -16 70 -16 70 7 87 67 50 80 63 100 102 17 32 21 60 22 131 1 112 -5
124 -124 250 -50 53 -97 107 -106 120 -28 43 -117 289 -117 325 0 19 8 80 18
135 16 91 23 108 76 189 53 80 73 124 133 288 21 58 83 153 124 192 l31 29 48
-43 c26 -24 77 -57 113 -74 60 -29 73 -31 170 -31 96 0 110 3 165 30 90 45
183 142 234 245 50 102 71 194 71 313 0 248 -123 472 -306 559 -64 30 -77 33
-169 33 -87 0 -107 -3 -155 -26 -134 -63 -235 -186 -286 -348 -34 -107 -10
-97 -259 -106 -93 -3 -313 -13 -489 -20 -175 -8 -322 -13 -326 -10 -4 2 -19
43 -35 90 -48 149 -149 267 -280 327 -43 20 -66 23 -165 23 -111 0 -118 -1
-185 -34 -95 -46 -182 -136 -228 -233 -45 -95 -61 -164 -61 -268 0 -162 54
-299 158 -406 138 -140 333 -176 504 -93 35 17 69 28 77 25 19 -7 64 -108 110
-247 41 -125 55 -146 133 -196 28 -18 52 -40 52 -47 0 -7 -9 -48 -20 -91 -11
-43 -20 -93 -20 -112 0 -39 60 -158 178 -353 45 -74 82 -141 82 -147 0 -17 -9
-16 -105 4 -124 26 -420 23 -548 -4 -54 -12 -109 -29 -123 -37 -27 -18 -39
-54 -30 -89 6 -27 106 -145 282 -336 68 -73 124 -142 124 -151 0 -22 -112
-128 -144 -136 -13 -3 -38 -4 -57 -2 -28 2 -35 8 -37 28 -6 52 -13 68 -46 104
-30 31 -34 40 -26 61 8 20 3 35 -30 84 -38 57 -40 63 -34 115 4 30 4 62 0 71
-5 14 -11 12 -35 -14 -24 -26 -37 -31 -73 -31 -24 0 -49 5 -56 12 -9 9 -17 9
-36 -2 -21 -11 -28 -11 -41 0 -20 16 -19 27 5 57 11 14 20 37 20 50 0 13 11
39 25 57 28 37 32 56 11 56 -8 0 -16 5 -18 11 -2 7 -18 -3 -36 -20 -40 -41
-78 -40 -74 0 2 19 -5 31 -22 43 -31 20 -36 20 -36 1 0 -28 -37 -15 -74 25
-33 37 -36 44 -30 83 10 78 14 87 34 87 10 0 22 4 25 10 8 13 -53 75 -82 84
-16 5 -23 15 -23 32 0 29 -26 84 -40 84 -5 0 -21 -18 -35 -40 -30 -48 -57 -63
-94 -55 -25 5 -30 2 -39 -25 -14 -40 -10 -48 49 -94 46 -35 50 -41 43 -70 -3
-17 -10 -39 -16 -48 -12 -23 -73 -54 -124 -62 -36 -6 -47 -3 -88 24 -25 17
-46 36 -46 41 0 5 -9 9 -20 9 -11 0 -26 12 -34 29 -9 16 -22 31 -31 35 -8 3
-20 17 -25 31 -6 15 -14 23 -20 20 -6 -4 0 -23 15 -49 18 -31 25 -57 25 -94 0
-40 4 -53 19 -62 27 -14 45 -74 37 -127 -4 -33 -2 -49 10 -60 8 -9 14 -25 12
-37 -2 -17 -10 -21 -41 -21 -20 0 -37 -3 -37 -7 0 -5 5 -8 10 -8 25 0 8 -42
-25 -61 -19 -12 -35 -25 -35 -29 0 -10 51 -20 117 -23 l52 -3 -6 42 c-5 35 -2
44 15 53 11 6 22 21 24 33 2 19 10 23 38 25 19 1 44 3 55 5 16 2 21 -3 23 -29
2 -25 -2 -35 -21 -48 -17 -11 -23 -22 -20 -39 4 -16 -2 -28 -18 -39 -22 -16
-22 -17 -4 -37 28 -31 8 -63 -54 -84 -66 -21 -71 -21 -71 10 0 39 -18 64 -45
64 -21 0 -25 -5 -25 -30 0 -26 -4 -30 -26 -30 -42 0 -64 17 -64 51 0 33 -14
41 -87 53 -36 5 -43 3 -48 -14 -9 -28 -47 -25 -78 6 -25 25 -26 25 -37 5 -13
-26 -31 -27 -61 -2 -24 19 -24 20 -7 53 9 18 20 49 23 69 6 31 3 39 -16 53
-13 9 -27 16 -32 16 -12 0 -37 -65 -37 -98 0 -29 -26 -62 -49 -62 -7 0 -26 9
-42 21 -24 17 -29 18 -29 4 0 -8 -12 -21 -26 -27 -21 -10 -31 -9 -54 4 -15 9
-32 12 -37 8 -4 -5 -21 -10 -38 -12 -32 -3 -34 -12 -19 -85 5 -26 3 -33 -9
-33 -21 0 -77 -48 -77 -66 0 -8 7 -17 15 -20 31 -12 15 -44 -40 -80 -38 -26
-60 -34 -72 -29 -10 5 -47 12 -83 16 -36 4 -86 11 -112 14 -36 6 -54 4 -73 -9
-19 -12 -37 -15 -78 -10 -34 4 -57 3 -61 -4 -4 -7 -53 -9 -144 -6 -131 5 -232
-4 -293 -27 -19 -8 -37 -5 -74 11 l-48 21 -29 -28 -29 -28 -477 -6 c-262 -4
-829 -10 -1259 -14 -430 -4 -788 -12 -795 -16 -11 -7 -11 -12 0 -29 7 -12 10
-30 7 -41 -5 -15 3 -29 29 -54 41 -39 45 -62 14 -75 -50 -21 -61 -37 -55 -80
3 -23 7 -44 10 -46 2 -3 418 0 923 5 506 6 1380 15 1944 21 564 6 1457 15
1985 20 528 5 1419 14 1980 20 561 6 1421 15 1910 20 490 5 1453 14 2140 20
1381 12 1435 13 1435 38 0 10 16 39 35 66 38 53 44 90 20 116 -12 13 -13 26
-7 55 7 33 13 40 42 48 35 8 68 32 59 41 -3 3 -306 1 -674 -4 -369 -5 -723
-10 -787 -10 l-118 0 -19 38 c-10 20 -42 63 -70 95 -81 92 -67 111 56 77 250
-71 415 99 341 350 -6 19 -32 79 -59 132 -83 165 -99 228 -109 423 -10 187
-26 265 -84 391 -47 100 -107 186 -194 276 l-74 77 13 65 c18 91 21 95 61 72
68 -39 92 -49 133 -53 48 -6 98 15 116 48 16 31 13 88 -6 109 -16 18 -17 18
-35 0 -37 -37 -100 13 -120 93 -19 76 -45 130 -72 150 -25 19 -33 20 -89 9
-35 -6 -71 -20 -84 -32 -28 -26 -31 -26 -109 11 -56 26 -74 30 -112 24 -67
-10 -124 -32 -164 -64 -19 -15 -49 -35 -66 -44 -49 -25 -94 -75 -94 -104 0
-38 58 -220 92 -286 16 -32 28 -63 26 -69 -6 -17 -335 -98 -403 -99 -33 -1
-121 2 -195 6 -83 4 -200 3 -305 -5 -93 -6 -183 -13 -200 -13 l-30 -2 -73 250
c-40 138 -74 261 -75 275 -2 24 0 25 63 25 79 0 84 3 214 126 173 163 302 311
314 360 13 51 8 62 -57 139 -26 30 -94 116 -151 190 -177 229 -256 301 -348
316 -49 8 -132 57 -132 78 0 9 14 29 30 46 27 27 30 38 30 90 0 36 8 81 20
112 11 29 20 61 20 71 0 47 -136 191 -225 238 -41 22 -48 23 -102 11 -75 -16
-110 -51 -156 -162 -53 -127 -54 -133 -21 -201 26 -56 27 -62 15 -106 -14 -56
-27 -73 -53 -73 -14 0 -28 18 -50 68 -29 62 -31 75 -31 177 0 61 3 135 7 165
7 45 1 88 -29 235 l-37 180 22 15 c61 42 110 95 120 129 22 80 1 163 -53 205
l-30 24 16 59 c31 110 15 172 -48 193 -19 6 -35 16 -35 21 0 16 -58 39 -97 38
-21 0 -52 -7 -70 -15z m197 -119 c27 -32 4 -155 -29 -155 -9 0 -22 5 -29 12
-27 27 -1 158 31 158 8 0 20 -7 27 -15z m-222 -55 c28 -42 30 -100 4 -100 -22
0 -40 36 -49 98 -7 54 9 55 45 2z m1037 -1867 c155 -131 193 -168 201 -197 5
-20 -5 -37 -54 -95 -33 -39 -86 -111 -118 -161 -42 -64 -65 -90 -79 -89 -11 0
-56 14 -99 32 l-79 32 -28 110 c-15 61 -28 122 -29 137 0 44 83 241 132 311
11 16 24 24 31 20 7 -4 62 -49 122 -100z m-2047 -573 c1 -19 9 -70 18 -113
l15 -79 -77 -96 c-42 -53 -96 -115 -119 -137 -23 -22 -60 -74 -83 -116 -44
-81 -115 -169 -137 -169 -13 0 -95 84 -95 98 0 4 21 28 46 52 59 57 72 89 80
194 8 102 -6 162 -47 204 -68 69 -212 106 -309 79 -100 -27 -173 -63 -188 -93
-8 -15 -21 -80 -28 -143 -17 -147 -23 -171 -38 -171 -7 0 -34 30 -59 68 -25
37 -57 83 -72 103 -25 35 -26 39 -12 65 22 43 57 162 57 194 0 15 6 32 13 38
14 12 816 61 952 58 l80 -1 3 -35z m1507 -490 c10 -10 33 -72 52 -137 68 -232
184 -443 323 -588 l97 -100 11 -85 c17 -131 37 -181 115 -295 40 -58 76 -112
82 -120 16 -24 -4 -33 -103 -50 -81 -14 -98 -14 -145 -2 -28 8 -81 22 -117 31
-36 9 -109 28 -163 42 l-98 27 -62 -25 c-48 -18 -63 -29 -65 -46 -5 -35 20
-64 79 -96 30 -16 99 -63 154 -105 l100 -76 85 0 c71 0 91 4 121 23 21 13 53
22 75 22 34 0 227 -26 262 -36 17 -5 11 -26 -35 -125 -29 -64 -33 -80 -24 -98
9 -17 9 -22 -1 -26 -28 -9 -1583 -23 -1594 -14 -21 17 -47 135 -42 187 5 48
72 173 178 332 52 76 85 146 105 215 17 57 107 240 145 295 32 45 100 189 144
303 24 62 81 189 128 282 47 94 95 196 107 228 19 45 28 57 46 57 12 0 30 -9
40 -20z m710 -382 c45 -8 157 -12 315 -10 182 1 261 -3 307 -13 34 -8 130 -26
214 -40 85 -14 155 -28 157 -30 3 -2 8 -25 13 -50 5 -26 17 -66 28 -90 17 -37
28 -49 73 -68 32 -15 72 -45 101 -76 48 -52 111 -168 123 -228 l6 -31 -324 5
c-357 7 -379 4 -424 -50 -21 -25 -25 -38 -20 -65 3 -19 12 -42 21 -52 25 -27
18 -40 -37 -65 -37 -17 -92 -29 -178 -39 -69 -7 -128 -12 -132 -10 -3 2 -21
48 -39 102 -59 179 -100 266 -180 389 -67 102 -84 138 -104 210 -25 95 -40
207 -30 224 4 5 14 8 23 5 10 -3 49 -11 87 -18z m889 -1158 l148 -30 94 -65
c52 -36 94 -70 94 -74 0 -11 -25 -21 -54 -21 -54 0 -117 -32 -159 -81 l-42
-49 -201 0 -202 0 -56 61 c-54 58 -56 62 -56 114 0 51 -2 56 -31 70 -16 9 -29
21 -27 27 6 18 227 77 289 77 31 1 122 -12 203 -29z m-3933 -49 c52 -10 118
-22 147 -26 50 -7 82 -25 82 -46 0 -19 83 -99 133 -127 60 -35 112 -86 103
-101 -5 -7 -63 -11 -165 -11 l-159 0 -38 48 c-21 26 -81 95 -131 154 -51 60
-93 112 -93 118 0 14 14 13 121 -9z"/>
<path d="M6116 6691 c20 -12 34 -31 39 -52 8 -32 9 -32 12 -8 2 14 -1 37 -6
52 -9 22 -17 27 -43 27 l-33 0 31 -19z"/>
<path d="M6270 6446 c0 -2 7 -9 15 -16 13 -11 14 -10 9 4 -5 14 -24 23 -24 12z"/>
<path d="M2778 4519 c-12 -7 -18 -22 -18 -48 0 -42 11 -56 51 -66 20 -5 28 -1
39 21 19 34 15 64 -12 87 -23 19 -36 21 -60 6z"/>
<path d="M5060 4407 c0 -20 -44 -57 -83 -71 l-35 -12 35 -29 c81 -70 85 -75
81 -106 -4 -24 0 -34 18 -46 21 -14 26 -13 60 14 49 38 64 75 51 124 -6 27
-19 44 -42 58 -18 10 -41 33 -51 50 -19 32 -34 40 -34 18z"/>
<path d="M5680 4235 c0 -9 5 -15 11 -13 6 2 11 8 11 13 0 5 -5 11 -11 13 -6 2
-11 -4 -11 -13z"/>
<path d="M2884 4226 c-10 -26 1 -51 28 -64 55 -26 94 29 46 62 -28 20 -67 21
-74 2z"/>
<path d="M3815 4195 c-29 -28 -35 -104 -10 -125 25 -20 71 -3 94 36 27 45 26
65 -2 92 -30 28 -52 28 -82 -3z"/>
<path d="M5443 4197 c-34 -19 -63 -63 -63 -96 0 -28 3 -31 31 -31 19 0 37 7
45 17 11 16 17 16 45 6 36 -14 49 -10 49 16 0 10 10 26 23 34 l22 16 -28 0
c-16 1 -37 11 -51 26 -26 28 -41 30 -73 12z"/>
<path d="M3986 4148 c-29 -37 -38 -61 -40 -92 -1 -39 -2 -41 -36 -44 -19 -2
-38 -8 -41 -14 -12 -20 4 -50 32 -60 20 -7 29 -17 29 -32 0 -24 28 -56 49 -56
6 0 23 12 37 27 22 24 28 25 62 17 30 -7 38 -14 40 -36 3 -25 6 -27 35 -21 43
8 54 18 68 61 6 20 20 52 31 69 31 53 21 65 -109 134 -22 12 -46 32 -52 45 -5
13 -23 30 -39 38 -29 15 -29 15 -66 -36z"/>
<path d="M4162 4179 c2 -7 10 -15 17 -17 8 -3 12 1 9 9 -2 7 -10 15 -17 17 -8
3 -12 -1 -9 -9z"/>
<path d="M3258 4078 c-44 -37 -62 -104 -34 -127 21 -18 92 4 111 33 12 18 13
29 4 55 -16 45 -51 62 -81 39z"/>
<path d="M4390 3952 c0 -14 42 -102 63 -132 9 -13 17 -32 17 -41 0 -9 19 -44
43 -79 23 -35 48 -74 55 -86 7 -13 21 -26 32 -29 10 -3 38 -28 60 -56 23 -27
47 -49 54 -49 13 0 38 45 55 99 9 29 8 41 -8 75 -11 23 -22 51 -26 64 -9 31
-20 28 -44 -13 -26 -45 -71 -49 -104 -9 -12 15 -40 47 -63 73 -44 50 -104 141
-104 158 0 6 -7 16 -15 23 -9 7 -15 8 -15 2z"/>
<path d="M5423 3914 c-39 -30 -42 -51 -9 -60 34 -8 61 2 76 31 11 20 11 27 0
40 -17 21 -30 19 -67 -11z"/>
<path d="M5037 3908 c-8 -23 11 -58 32 -58 27 0 33 14 20 44 -13 27 -43 35
-52 14z"/>
<path d="M3540 3760 c0 -21 4 -23 60 -24 37 -1 40 -8 26 -53 -5 -17 -3 -23 7
-23 18 0 37 43 37 85 l0 35 -65 0 c-58 0 -65 -2 -65 -20z"/>
<path d="M3311 3714 c-18 -13 -21 -22 -16 -43 14 -57 58 -77 103 -45 29 20 28
50 -4 79 -31 29 -51 31 -83 9z"/>
<path d="M3547 3573 c-11 -11 -8 -48 5 -61 7 -7 30 -12 51 -12 38 0 65 -15
121 -65 12 -11 34 -28 49 -38 35 -23 35 -47 1 -47 l-26 0 31 -29 c17 -16 31
-35 31 -43 1 -7 15 -22 32 -33 42 -27 44 -37 13 -74 -29 -34 -23 -40 13 -15
16 11 23 24 21 43 -4 43 10 69 43 80 l32 11 -55 56 c-29 30 -79 72 -109 92
-30 20 -78 61 -107 90 -46 47 -55 52 -95 52 -25 0 -48 -3 -51 -7z"/>
<path d="M3845 3500 c3 -5 10 -10 16 -10 5 0 9 5 9 10 0 6 -7 10 -16 10 -8 0
-12 -4 -9 -10z"/>
<path d="M3965 3464 c-27 -15 -52 -28 -54 -30 -2 -2 9 -20 24 -40 l28 -37 11
34 c8 23 22 39 46 50 19 9 35 23 35 30 0 23 -37 20 -90 -7z"/>
<path d="M3221 3335 l-42 -45 28 -35 c24 -30 34 -35 68 -35 33 0 45 -5 66 -32
21 -26 34 -32 62 -31 19 1 48 7 64 15 26 12 28 18 28 68 l0 55 -48 0 c-41 0
-51 4 -61 24 -13 24 -77 60 -107 61 -9 0 -35 -20 -58 -45z"/>
<path d="M5934 3266 c-13 -33 35 -73 59 -50 9 10 -11 42 -33 54 -16 8 -22 8
-26 -4z"/>
<path d="M3705 3220 c-9 -15 4 -30 26 -30 12 0 19 7 19 20 0 21 -33 29 -45 10z"/>
<path d="M3088 3193 c-10 -2 -18 -13 -18 -24 0 -14 7 -19 28 -19 30 0 52 16
52 37 0 13 -27 15 -62 6z"/>
<path d="M12520 2700 c-19 -4 -300 -11 -625 -14 -324 -4 -954 -11 -1400 -16
-3208 -38 -3042 -38 -3195 -11 -149 26 -133 25 -194 13 -27 -6 -56 -8 -63 -5
-8 3 -27 -3 -42 -15 -26 -19 -46 -20 -362 -26 -184 -4 -935 -13 -1669 -22
-734 -8 -2071 -23 -2970 -34 -899 -11 -1679 -20 -1733 -20 -63 0 -96 -4 -92
-10 3 -5 24 -10 47 -10 36 0 40 -2 34 -20 -3 -11 -9 -29 -12 -40 -5 -15 4 -30
34 -58 36 -33 41 -43 47 -101 l7 -64 537 7 c295 3 1042 11 1661 16 619 5 1295
12 1502 15 l378 6 10 -27 c6 -16 31 -49 56 -76 47 -51 54 -72 27 -86 -14 -7
-3088 -38 -3683 -37 -159 0 -294 13 -346 32 -33 12 -49 12 -84 3 -24 -6 -68
-12 -99 -11 -31 0 -67 -7 -81 -14 -23 -13 -20 -14 50 -15 153 -2 193 -24 68
-38 -34 -4 -63 -12 -65 -19 -3 -7 14 -21 36 -33 23 -11 41 -25 41 -31 0 -8 5
-7 15 1 13 10 20 11 39 1 18 -10 336 -12 1482 -10 802 1 1466 2 1474 1 16 -1
266 2 915 12 360 6 383 5 431 -13 45 -18 180 -33 270 -32 69 1 176 -18 195
-35 47 -42 36 -44 -279 -44 -164 0 -569 -3 -900 -7 -573 -6 -601 -7 -591 -24
7 -13 24 -19 67 -21 48 -3 57 -6 56 -21 -2 -16 4 -17 50 -12 43 6 55 3 78 -14
14 -12 36 -21 47 -21 12 0 21 -6 21 -15 0 -8 -5 -15 -11 -15 -6 0 -9 -10 -7
-22 3 -22 6 -23 88 -20 87 4 123 17 135 49 13 37 83 81 140 88 100 13 180 -6
220 -51 27 -31 44 -38 149 -64 165 -42 165 -42 248 34 47 43 87 70 119 80 62
21 68 20 95 -5 18 -17 25 -18 41 -8 14 8 25 9 39 1 14 -8 27 -5 59 14 91 53
415 22 415 -41 0 -6 18 -28 39 -49 38 -37 39 -41 34 -87 -5 -41 -3 -50 13 -56
10 -4 19 -2 22 5 13 41 41 56 108 63 79 7 96 1 140 -50 l32 -36 6 110 c4 61
11 120 16 131 8 20 35 31 95 37 11 1 31 10 45 20 22 15 54 17 298 17 268 0
274 0 325 -24 73 -34 209 -50 285 -35 54 11 61 11 88 -8 16 -12 50 -24 76 -28
27 -3 63 -18 85 -34 21 -15 58 -39 84 -54 42 -25 47 -26 67 -11 16 11 34 14
60 9 30 -5 44 -2 64 14 14 12 37 21 51 21 13 0 36 10 50 23 14 12 38 31 53 42
14 11 37 30 51 43 33 28 67 28 95 0 17 -17 34 -23 73 -23 48 0 51 -2 68 -37
20 -41 23 -43 61 -28 19 7 29 5 41 -7 13 -13 21 -13 41 -4 40 18 81 14 87 -9
5 -19 6 -19 61 6 78 35 103 23 131 -63 11 -35 23 -63 26 -63 4 0 9 25 11 56 3
33 11 60 19 65 28 18 76 9 117 -21 l42 -30 0 24 c0 30 14 40 36 28 11 -6 28
-3 52 10 20 10 44 18 55 18 20 0 87 -32 129 -61 27 -20 68 -26 68 -10 0 5 15
26 34 45 32 34 37 36 100 36 62 0 67 -2 76 -26 6 -14 10 -35 10 -46 0 -12 9
-41 21 -65 26 -53 96 -97 182 -114 38 -8 61 -18 64 -28 23 -70 58 -123 96
-145 79 -47 171 -46 228 1 48 41 70 103 78 218 l6 100 70 -1 c95 0 152 -28
210 -102 136 -173 177 -389 193 -1007 l8 -331 28 -58 c21 -43 40 -65 74 -87
53 -33 71 -35 115 -13 74 37 108 89 118 179 4 33 0 314 -8 624 -8 310 -12 570
-9 577 3 9 21 14 45 14 34 0 41 -4 45 -22 3 -13 7 -123 10 -246 6 -245 16
-292 70 -327 36 -24 109 -15 143 16 61 58 62 69 50 534 -5 171 -5 315 0 320 4
6 39 24 78 40 52 22 86 45 132 92 l63 63 183 1 c100 0 175 3 167 6 -8 2 -24 8
-35 13 -33 13 -161 30 -225 30 -56 0 -60 2 -60 23 0 59 -42 55 758 59 404 2
738 6 744 9 5 4 -11 10 -37 13 -44 7 -74 35 -47 44 29 9 43 35 37 64 -5 22 -2
33 11 43 16 12 12 14 -39 20 -32 4 -81 4 -110 0 -141 -21 -414 -25 -537 -8
-96 12 -202 26 -341 42 -41 5 -100 5 -130 0 -86 -12 -236 -4 -338 19 -133 31
-248 29 -447 -8 -143 -26 -219 -32 -379 -31 -138 2 -161 4 -175 16 -14 12 -94
23 -210 27 -25 1 -88 -6 -140 -15 -180 -33 -226 -38 -420 -40 -107 -2 -201 -7
-209 -11 -8 -5 -67 -12 -132 -16 -91 -6 -130 -5 -166 6 -26 8 -55 11 -66 8
-11 -3 -26 1 -38 12 -18 16 -22 16 -69 1 -40 -13 -56 -14 -78 -5 -15 6 -53 10
-84 9 -40 -2 -72 4 -104 18 -57 25 -157 28 -259 6 -78 -17 -150 -12 -178 13
-15 13 -23 14 -51 4 -18 -7 -48 -12 -68 -12 -39 0 -101 36 -106 62 -3 14 57
16 610 23 757 8 924 5 1040 -20 l87 -19 108 27 108 26 1180 11 c649 5 1277 10
1396 10 l216 0 39 26 c21 15 50 30 64 34 30 8 39 50 16 70 -20 16 -20 29 0 51
18 20 10 87 -12 96 -28 11 -14 32 24 35 25 2 37 8 37 18 0 12 -16 15 -75 17
-41 1 -91 -2 -110 -7z m-5832 -399 c25 -15 8 -44 -38 -68 -25 -12 -97 -34
-160 -48 -74 -17 -127 -34 -151 -50 l-36 -26 -359 -2 c-324 -2 -365 0 -417 16
-32 10 -65 16 -73 13 -24 -9 -115 34 -112 53 5 23 60 26 148 6 68 -15 81 -15
139 -2 46 11 73 12 99 5 20 -6 64 -11 99 -12 54 -1 65 2 78 21 9 13 39 28 72
38 52 15 59 15 102 -1 86 -31 143 -30 218 5 40 19 97 36 142 42 42 6 78 13 80
15 8 8 156 4 169 -5z"/>
<path d="M238 2663 c6 -2 18 -2 25 0 6 3 1 5 -13 5 -14 0 -19 -2 -12 -5z"/>
<path d="M8983 2275 c-57 -24 -37 -45 42 -45 53 0 67 16 35 42 -26 21 -35 22
-77 3z"/>
<path d="M8840 2250 c0 -5 4 -10 9 -10 6 0 13 5 16 10 3 6 -1 10 -9 10 -9 0
-16 -4 -16 -10z"/>
<path d="M11588 1953 c-9 -10 -18 -30 -20 -45 l-5 -28 511 2 c350 1 481 4 416
9 -52 5 -123 9 -158 10 -51 0 -62 3 -58 15 5 12 -22 14 -167 14 -150 0 -178
-3 -216 -20 -30 -14 -65 -20 -117 -20 -77 0 -99 12 -68 36 18 14 18 14 0 29
-28 21 -99 19 -118 -2z"/>
<path d="M2719 1801 c21 -13 140 -22 346 -26 99 -1 193 -8 208 -14 42 -17 54
-14 77 19 l21 30 -333 0 c-200 0 -327 -4 -319 -9z"/>
<path d="M6010 1743 c-30 -3 -60 -9 -67 -15 -23 -18 14 -47 68 -54 27 -4 54
-13 60 -20 8 -10 38 -14 106 -14 80 0 101 4 143 25 27 14 63 25 79 25 16 0 33
5 36 10 11 17 -48 32 -107 27 -32 -3 -102 1 -155 9 -54 7 -100 13 -103 12 -3
-1 -30 -3 -60 -5z"/>
<path d="M6555 1730 c-3 -5 1 -10 10 -10 9 0 13 5 10 10 -3 6 -8 10 -10 10 -2
0 -7 -4 -10 -10z"/>
<path d="M4885 1691 c-3 -5 -1 -12 5 -16 5 -3 10 1 10 9 0 18 -6 21 -15 7z"/>
<path d="M4960 1670 c0 -5 5 -10 10 -10 6 0 10 5 10 10 0 6 -4 10 -10 10 -5 0
-10 -4 -10 -10z"/>
<path d="M5121 1636 c-35 -56 -23 -96 29 -96 14 0 38 -7 54 -15 39 -21 51 -19
70 10 42 64 -9 135 -98 135 -28 0 -38 -6 -55 -34z"/>
<path d="M7093 1633 c-20 -7 -15 -19 12 -31 30 -14 45 -15 45 -4 -1 12 -44 39
-57 35z"/>
<path d="M7310 1570 c-8 -5 -28 -10 -43 -10 -41 0 -46 -27 -11 -55 18 -15 33
-20 39 -14 5 5 17 9 27 9 26 0 45 44 28 65 -15 17 -20 18 -40 5z"/>
<path d="M7821 1519 c-14 -42 -7 -49 9 -9 7 17 10 33 8 36 -3 3 -11 -9 -17
-27z"/>
<path d="M8101 1531 c-10 -6 -10 -10 -1 -16 7 -4 19 0 28 9 14 13 14 16 2 16
-8 0 -21 -4 -29 -9z"/>
<path d="M8511 1459 c0 -13 4 -33 9 -44 7 -14 8 -8 3 20 -7 46 -13 59 -12 24z"/>
<path d="M4790 1401 c0 -37 14 -53 44 -53 31 0 56 18 56 42 0 26 -22 40 -63
38 -33 -1 -37 -4 -37 -27z"/>
<path d="M5245 1330 c-9 -15 4 -30 20 -23 8 3 15 9 15 13 0 12 -29 20 -35 10z"/>
<path d="M5077 1132 c-35 -22 -31 -46 9 -50 35 -3 64 18 64 49 0 24 -33 24
-73 1z"/>
<path d="M4690 1080 c0 -5 7 -10 15 -10 8 0 15 5 15 10 0 6 -7 10 -15 10 -8 0
-15 -4 -15 -10z"/>
</g>
</svg>
